<svg width="24" height="24" viewBox="0 0 24 24" fill="none" xmlns="http://www.w3.org/2000/svg">
<path fill-rule="evenodd" clip-rule="evenodd" d="M12.0161 2.39994C10.8161 2.39994 10.1161 3.19994 9.91613 3.59994C8.31613 7.39994 5.05613 15.7199 4.81613 18.5999C4.57613 21.4799 7.11613 21.5999 8.41613 21.2999L12.0161 19.4999L15.6161 21.2999C16.9161 21.5999 19.4561 21.4799 19.2161 18.5999C18.9761 15.7199 15.7161 7.39994 14.1161 3.59994C13.9161 3.19994 13.2161 2.39994 12.0161 2.39994Z" fill="white"/>
<path d="M18.6822 12.8825L17.3345 9.06402C17.2115 8.7157 17.4302 8.34067 17.7991 8.32187C19.0009 8.26062 20.7093 8.52149 21.3001 9.89997C21.9058 11.3132 20.5725 12.5425 19.479 13.1949C19.1767 13.3752 18.7993 13.2144 18.6822 12.8825Z" fill="white"/>
<path d="M5.1695 12.8825L6.51719 9.06402C6.64012 8.7157 6.42149 8.34067 6.05259 8.32187C4.85072 8.26062 3.14233 8.52149 2.55156 9.89997C1.94587 11.3132 3.27918 12.5425 4.37267 13.1949C4.67498 13.3752 5.05234 13.2144 5.1695 12.8825Z" fill="white"/>
</svg>
