<svg width="24" height="24" viewBox="0 0 24 24" fill="none" xmlns="http://www.w3.org/2000/svg">
<path fill-rule="evenodd" clip-rule="evenodd" d="M5.53874 5.75309C5.05874 6.47309 5.93874 7.05309 6.43874 7.25309C7.02133 7.59029 7.19025 9.25246 7.47418 12.0462L7.49999 12.3C7.68763 14.1432 8.99999 14.9 9.59999 15C9.83969 15.012 10.1179 15.0279 10.4235 15.0454L10.4237 15.0454C12.6682 15.1738 16.3938 15.3868 17.2387 14.7531C18.2356 14.0055 18.6114 11.8086 18.882 10.2263L18.882 10.2263C18.9372 9.90388 18.9879 9.60701 19.0387 9.35311C19.2787 8.15311 18.5387 7.85311 18.1387 7.85311C15.1387 7.7531 8.95871 7.55309 8.23871 7.55309C8.23871 5.75309 6.13874 4.85309 5.53874 5.75309ZM11.539 9C11.8703 9 12.139 9.26863 12.139 9.6V12.6C12.139 12.9314 11.8703 13.2 11.539 13.2C11.2076 13.2 10.939 12.9314 10.939 12.6V9.6C10.939 9.26863 11.2076 9 11.539 9ZM14.839 9.6C14.839 9.26863 14.5703 9 14.239 9C13.9076 9 13.639 9.26863 13.639 9.6V12.6C13.639 12.9314 13.9076 13.2 14.239 13.2C14.5703 13.2 14.839 12.9314 14.839 12.6V9.6Z" fill="white"/>
<circle cx="15.439" cy="17.4" r="1.2" fill="white"/>
<circle cx="10.639" cy="17.4" r="1.2" fill="white"/>
</svg>
